<svg version="1.1" xmlns="http://www.w3.org/2000/svg" xmlns:xlink="http://www.w3.org/1999/xlink" role="img" width="474" height="90" viewbox="0 0 474 90"><title>python-setup.py</title><desc>Generated by logo.svg, https://github.com/bubkoo/logo.svg</desc><path fill="#2b68a7" d="M0.55 85.71L9.06 45.14Q9.32 43.86 9.48 42.96Q9.64 42.06 9.64 41.74Q9.64 39.82 8.33 39.28Q7.02 38.74 5.16 38.74L4.65 38.74L5.22 36.05L16.55 36.05L15.02 44.56L15.34 44.56Q16.62 42.06 18.25 39.98Q19.88 37.90 22.02 36.66Q24.17 35.41 27.05 35.41Q30.95 35.41 33.06 38.38Q35.18 41.36 35.18 46.99Q35.18 49.74 34.41 52.98Q33.64 56.21 32.14 59.41Q30.63 62.61 28.36 65.23Q26.09 67.86 23.02 69.42Q19.94 70.99 16.10 70.99Q14.25 70.99 12.65 70.61Q11.05 70.22 9.83 69.52Q9.83 69.52 9.70 70.51Q9.58 71.50 9.32 72.59L8.42 76.50Q8.30 76.88 8.07 78.13Q7.85 79.38 7.85 80.08Q7.85 82 9.16 82.51Q10.47 83.02 12.33 83.02L13.16 83.02L12.58 85.71L0.55 85.71M15.91 68.11Q18.34 68.11 20.36 66.70Q22.38 65.30 23.91 62.93Q25.45 60.56 26.50 57.78Q27.56 54.99 28.10 52.14Q28.65 49.30 28.65 46.93Q28.65 45.07 28.30 43.34Q27.94 41.62 27.08 40.53Q26.22 39.44 24.62 39.44Q22.76 39.44 20.97 40.85Q19.18 42.26 17.64 44.46Q16.10 46.67 15.02 49.10Q13.93 51.54 13.48 53.65L10.86 65.81Q11.43 66.51 12.78 67.31Q14.12 68.11 15.91 68.11ZM32.30 85.71Q28.90 85.71 26.28 84.56L27.24 81.36Q28.01 81.62 29.13 81.84Q30.25 82.06 32.23 82.06Q35.37 82.06 38.02 80.94Q40.68 79.82 42.92 78.06Q45.16 76.30 46.98 74.29Q48.81 72.27 50.22 70.42L41.77 42.13Q41.19 40.21 40.20 39.47Q39.21 38.74 37.35 38.74L36.71 38.74L37.22 36.05L46.57 36.05L51.56 53.33Q52.01 54.99 52.62 57.30Q53.22 59.60 53.70 61.71Q54.18 63.82 54.25 64.91L54.44 64.91Q56.87 61.26 58.82 57.46Q60.78 53.65 61.93 50.10Q63.08 46.54 63.08 43.66Q63.08 42.32 62.41 41.26Q61.74 40.21 59.94 40.21Q59.94 37.90 61.26 36.69Q62.57 35.47 64.10 35.47Q66.09 35.47 67.27 36.82Q68.46 38.16 68.46 40.85Q68.46 45.84 65.38 52.37Q62.31 58.90 57.19 66.70Q54.06 71.57 51.40 75.15Q48.74 78.74 46.06 81.07Q43.37 83.41 40.07 84.56Q36.78 85.71 32.30 85.71ZM82.15 70.99Q75.18 70.99 75.18 63.50Q75.18 62.35 75.37 60.85Q75.56 59.34 75.82 58.13L79.72 39.70L74.86 39.70L75.43 37.14Q78.18 37.14 80.74 35.12Q83.30 33.10 85.22 28.18L88.17 28.18L86.50 36.05L94.25 36.05L93.48 39.70L85.74 39.70L81.83 57.94Q81.51 59.54 81.29 60.98Q81.06 62.42 81.06 63.44Q81.06 65.30 81.96 66.13Q82.86 66.96 84.46 66.96Q85.80 66.96 87.21 66.54Q88.62 66.13 89.70 65.55L90.79 67.92Q88.87 69.26 86.70 70.13Q84.52 70.99 82.15 70.99ZM123.43 70.99Q120.62 70.99 119.11 69.20Q117.61 67.41 117.61 64.59Q117.61 61.65 118.82 55.95L119.91 50.96Q120.10 50.13 120.42 48.75Q120.74 47.38 121.00 45.94Q121.26 44.50 121.26 43.34Q121.26 42.06 120.71 40.82Q120.17 39.57 118.31 39.57Q116.26 39.57 114.31 41.04Q112.36 42.51 110.66 44.82Q108.97 47.12 107.78 49.58Q106.60 52.05 106.22 53.97L102.76 70.35L96.81 70.35L105.13 30.80Q105.38 29.52 105.54 28.62Q105.70 27.73 105.70 27.41Q105.70 25.49 104.39 24.94Q103.08 24.40 101.22 24.40L100.71 24.40L101.29 21.71L113.06 21.71L110.57 33.49Q109.86 36.88 109.10 39.89Q108.33 42.90 108.01 44.11L108.71 44.11Q111.27 39.89 114.12 37.68Q116.97 35.47 120.55 35.47Q124.33 35.47 125.86 37.62Q127.40 39.76 127.40 42.58Q127.40 44.18 126.98 46.06Q126.57 47.95 126.25 49.62L124.58 57.17Q124.20 58.96 123.98 60.69Q123.75 62.42 123.75 63.89Q123.75 66.96 125.99 66.96Q127.85 66.96 130.09 65.49L131.24 67.34Q129.70 68.62 127.82 69.81Q125.93 70.99 123.43 70.99ZM147.37 70.99Q141.93 70.99 138.50 67.70Q135.08 64.40 135.08 57.74Q135.08 54.22 136.23 50.32Q137.38 46.42 139.75 43.02Q142.12 39.63 145.70 37.52Q149.29 35.41 154.15 35.41Q157.54 35.41 160.30 36.75Q163.05 38.10 164.68 41.04Q166.31 43.98 166.31 48.66Q166.31 51.41 165.61 54.45Q164.90 57.49 163.43 60.43Q161.96 63.38 159.72 65.74Q157.48 68.11 154.38 69.55Q151.27 70.99 147.37 70.99M148.07 67.73Q151.21 67.73 153.42 65.71Q155.62 63.70 157.00 60.53Q158.38 57.36 159.02 53.90Q159.66 50.45 159.66 47.57Q159.66 42.77 157.99 40.72Q156.33 38.67 153.38 38.67Q150.89 38.67 148.97 40.02Q147.05 41.36 145.67 43.57Q144.30 45.78 143.43 48.46Q142.57 51.15 142.15 53.87Q141.74 56.59 141.74 58.90Q141.74 63.76 143.46 65.74Q145.19 67.73 148.07 67.73ZM198.50 70.99Q195.69 70.99 194.18 69.20Q192.68 67.41 192.68 64.59Q192.68 61.65 193.90 55.95L194.98 50.96Q195.18 50.13 195.50 48.75Q195.82 47.38 196.07 45.94Q196.33 44.50 196.33 43.34Q196.33 42.06 195.78 40.82Q195.24 39.57 193.38 39.57Q191.34 39.57 189.38 41.04Q187.43 42.51 185.74 44.82Q184.04 47.12 182.86 49.58Q181.67 52.05 181.29 53.97L177.83 70.35L171.88 70.35L177.26 44.62Q177.45 43.73 177.54 42.90Q177.64 42.06 177.64 41.74Q177.64 39.82 176.30 39.28Q174.95 38.74 173.16 38.74L172.65 38.74L173.22 36.05L185.06 36.05L183.34 44.11L183.98 44.11Q186.60 39.89 189.32 37.68Q192.04 35.47 195.62 35.47Q199.40 35.47 200.94 37.62Q202.47 39.76 202.47 42.58Q202.47 44.18 202.06 46.06Q201.64 47.95 201.32 49.62L199.66 57.17Q199.27 58.96 199.05 60.69Q198.82 62.42 198.82 63.89Q198.82 66.96 201.06 66.96Q202.92 66.96 205.16 65.49L206.31 67.34Q204.78 68.62 202.89 69.81Q201.00 70.99 198.50 70.99ZM208.30 55.31L209.32 50.51L225.96 50.51L224.94 55.31L208.30 55.31ZM239.40 70.99Q234.60 70.99 231.72 69.07Q228.84 67.15 228.84 63.76Q228.84 62.03 229.51 61.14Q230.18 60.24 231.14 59.89Q232.10 59.54 232.87 59.54Q232.87 61.78 233.58 63.70Q234.28 65.62 235.88 66.77Q237.48 67.92 240.17 67.92Q243.37 67.92 245.22 66.45Q247.08 64.98 247.08 61.97Q247.08 59.73 245.61 58.13Q244.14 56.53 240.62 54.93Q237.10 53.26 234.98 51.06Q232.87 48.85 232.87 45.01Q232.87 40.91 236.20 38.19Q239.53 35.47 245.22 35.47Q248.74 35.47 250.92 36.37Q253.10 37.26 254.15 38.67Q255.21 40.08 255.21 41.55Q255.21 43.60 253.90 44.56Q252.58 45.52 250.41 45.52Q250.41 43.86 249.86 42.19Q249.32 40.53 248.07 39.47Q246.82 38.42 244.65 38.42Q241.77 38.42 240.10 39.98Q238.44 41.55 238.44 43.92Q238.44 46.10 240.01 47.54Q241.58 48.98 244.97 50.51Q248.49 52.11 250.57 54.42Q252.65 56.72 252.65 60.43Q252.65 65.10 249.10 68.05Q245.54 70.99 239.40 70.99ZM272.17 70.99Q268.71 70.99 265.90 69.52Q263.08 68.05 261.38 65.14Q259.69 62.22 259.69 57.74Q259.69 54.22 260.90 50.32Q262.12 46.42 264.55 43.02Q266.98 39.63 270.54 37.52Q274.09 35.41 278.76 35.41Q282.79 35.41 285.03 37.36Q287.27 39.31 287.27 42.77Q287.27 46.16 284.87 49.07Q282.47 51.98 278.28 53.78Q274.09 55.57 268.71 55.57L266.47 55.57Q266.41 56.27 266.38 56.94Q266.34 57.62 266.34 58.26Q266.34 62.42 268.14 64.69Q269.93 66.96 273.38 66.96Q276.46 66.96 278.86 65.49Q281.26 64.02 282.60 62.35Q283.24 62.80 283.24 63.95Q283.24 65.36 282.06 66.99Q280.87 68.62 278.44 69.81Q276.01 70.99 272.17 70.99M267.05 52.62L267.69 52.62Q271.40 52.62 274.34 51.38Q277.29 50.13 278.98 47.92Q280.68 45.71 280.68 42.77Q280.68 38.48 276.97 38.48Q275.11 38.48 273.54 39.73Q271.98 40.98 270.70 43.06Q269.42 45.14 268.49 47.63Q267.56 50.13 267.05 52.62ZM300.20 70.99Q293.22 70.99 293.22 63.50Q293.22 62.35 293.42 60.85Q293.61 59.34 293.86 58.13L297.77 39.70L292.90 39.70L293.48 37.14Q296.23 37.14 298.79 35.12Q301.35 33.10 303.27 28.18L306.22 28.18L304.55 36.05L312.30 36.05L311.53 39.70L303.78 39.70L299.88 57.94Q299.56 59.54 299.34 60.98Q299.11 62.42 299.11 63.44Q299.11 65.30 300.01 66.13Q300.90 66.96 302.50 66.96Q303.85 66.96 305.26 66.54Q306.66 66.13 307.75 65.55L308.84 67.92Q306.92 69.26 304.74 70.13Q302.57 70.99 300.20 70.99ZM341.22 70.99Q338.66 70.99 337.26 69.20Q335.85 67.41 335.85 64.91Q335.85 64.21 335.94 63.18Q336.04 62.16 336.17 61.14L335.66 61.14Q333.86 64.08 332.14 66.26Q330.41 68.43 328.30 69.68Q326.18 70.93 323.30 70.93Q319.53 70.93 317.99 68.78Q316.46 66.64 316.46 63.82Q316.46 62.22 316.84 60.34Q317.22 58.45 317.61 56.78L320.10 45.58Q320.30 44.69 320.49 43.38Q320.68 42.06 320.68 41.74Q320.68 39.82 319.37 39.28Q318.06 38.74 316.20 38.74L315.69 38.74L316.26 36.05L328.17 36.05L323.94 55.18Q323.56 56.91 323.11 59.22Q322.66 61.52 322.66 62.93Q322.66 64.53 323.30 65.68Q323.94 66.83 325.80 66.83Q327.53 66.83 329.38 65.52Q331.24 64.21 332.97 62.03Q334.70 59.86 335.98 57.23Q337.26 54.61 337.83 51.98L341.16 36.05L347.37 36.05L342.95 56.59Q342.76 57.30 342.54 58.64Q342.31 59.98 342.15 61.39Q341.99 62.80 341.99 63.70Q341.99 66.96 344.10 66.96Q345.19 66.96 346.09 66.61Q346.98 66.26 348.20 65.55L349.35 67.41Q347.94 68.69 345.80 69.84Q343.66 70.99 341.22 70.99ZM349.93 85.71L358.44 45.14Q358.70 43.86 358.86 42.96Q359.02 42.06 359.02 41.74Q359.02 39.82 357.70 39.28Q356.39 38.74 354.54 38.74L354.02 38.74L354.60 36.05L365.93 36.05L364.39 44.56L364.71 44.56Q365.99 42.06 367.62 39.98Q369.26 37.90 371.40 36.66Q373.54 35.41 376.42 35.41Q380.33 35.41 382.44 38.38Q384.55 41.36 384.55 46.99Q384.55 49.74 383.78 52.98Q383.02 56.21 381.51 59.41Q380.01 62.61 377.74 65.23Q375.46 67.86 372.39 69.42Q369.32 70.99 365.48 70.99Q363.62 70.99 362.02 70.61Q360.42 70.22 359.21 69.52Q359.21 69.52 359.08 70.51Q358.95 71.50 358.70 72.59L357.80 76.50Q357.67 76.88 357.45 78.13Q357.22 79.38 357.22 80.08Q357.22 82 358.54 82.51Q359.85 83.02 361.70 83.02L362.54 83.02L361.96 85.71L349.93 85.71M365.29 68.11Q367.72 68.11 369.74 66.70Q371.75 65.30 373.29 62.93Q374.82 60.56 375.88 57.78Q376.94 54.99 377.48 52.14Q378.02 49.30 378.02 46.93Q378.02 45.07 377.67 43.34Q377.32 41.62 376.46 40.53Q375.59 39.44 373.99 39.44Q372.14 39.44 370.34 40.85Q368.55 42.26 367.02 44.46Q365.48 46.67 364.39 49.10Q363.30 51.54 362.86 53.65L360.23 65.81Q360.81 66.51 362.15 67.31Q363.50 68.11 365.29 68.11ZM392.55 70.86Q390.95 70.86 389.96 69.97Q388.97 69.07 388.97 67.60Q388.97 64.66 390.47 63.38Q391.98 62.10 393.58 62.10Q395.18 62.10 396.17 62.96Q397.16 63.82 397.16 65.23Q397.16 68.24 395.75 69.55Q394.34 70.86 392.55 70.86ZM402.86 85.71L411.37 45.14Q411.62 43.86 411.78 42.96Q411.94 42.06 411.94 41.74Q411.94 39.82 410.63 39.28Q409.32 38.74 407.46 38.74L406.95 38.74L407.53 36.05L418.86 36.05L417.32 44.56L417.64 44.56Q418.92 42.06 420.55 39.98Q422.18 37.90 424.33 36.66Q426.47 35.41 429.35 35.41Q433.26 35.41 435.37 38.38Q437.48 41.36 437.48 46.99Q437.48 49.74 436.71 52.98Q435.94 56.21 434.44 59.41Q432.94 62.61 430.66 65.23Q428.39 67.86 425.32 69.42Q422.25 70.99 418.41 70.99Q416.55 70.99 414.95 70.61Q413.35 70.22 412.14 69.52Q412.14 69.52 412.01 70.51Q411.88 71.50 411.62 72.59L410.73 76.50Q410.60 76.88 410.38 78.13Q410.15 79.38 410.15 80.08Q410.15 82 411.46 82.51Q412.78 83.02 414.63 83.02L415.46 83.02L414.89 85.71L402.86 85.71M418.22 68.11Q420.65 68.11 422.66 66.70Q424.68 65.30 426.22 62.93Q427.75 60.56 428.81 57.78Q429.86 54.99 430.41 52.14Q430.95 49.30 430.95 46.93Q430.95 45.07 430.60 43.34Q430.25 41.62 429.38 40.53Q428.52 39.44 426.92 39.44Q425.06 39.44 423.27 40.85Q421.48 42.26 419.94 44.46Q418.41 46.67 417.32 49.10Q416.23 51.54 415.78 53.65L413.16 65.81Q413.74 66.51 415.08 67.31Q416.42 68.11 418.22 68.11ZM434.60 85.71Q431.21 85.71 428.58 84.56L429.54 81.36Q430.31 81.62 431.43 81.84Q432.55 82.06 434.54 82.06Q437.67 82.06 440.33 80.94Q442.98 79.82 445.22 78.06Q447.46 76.30 449.29 74.29Q451.11 72.27 452.52 70.42L444.07 42.13Q443.50 40.21 442.50 39.47Q441.51 38.74 439.66 38.74L439.02 38.74L439.53 36.05L448.87 36.05L453.86 53.33Q454.31 54.99 454.92 57.30Q455.53 59.60 456.01 61.71Q456.49 63.82 456.55 64.91L456.74 64.91Q459.18 61.26 461.13 57.46Q463.08 53.65 464.23 50.10Q465.38 46.54 465.38 43.66Q465.38 42.32 464.71 41.26Q464.04 40.21 462.25 40.21Q462.25 37.90 463.56 36.69Q464.87 35.47 466.41 35.47Q468.39 35.47 469.58 36.82Q470.76 38.16 470.76 40.85Q470.76 45.84 467.69 52.37Q464.62 58.90 459.50 66.70Q456.36 71.57 453.70 75.15Q451.05 78.74 448.36 81.07Q445.67 83.41 442.38 84.56Q439.08 85.71 434.60 85.71Z"></path></svg>